<svg xmlns="http://www.w3.org/2000/svg" viewBox="0 0 24 24" fill="none">
  <rect width="24" height="24" rx="12" fill="#5865F2"/>
  <path d="M16.85 7.55c-.92-.42-1.9-.74-2.92-.92-.12.22-.26.52-.36.75-1.14-.17-2.28-.17-3.42 0-.1-.23-.24-.53-.36-.75-1.02.18-2 .5-2.92.92-.02 0-.03.02-.04.03-1.85 2.78-2.36 5.48-2.1 8.15 0 .02.01.04.03.05 1.22.9 2.4 1.45 3.56 1.8.03 0 .05 0 .06-.02.28-.38.52-.78.73-1.2 0-.02 0-.05-.03-.06-.39-.15-.76-.33-1.12-.53-.03-.02-.03-.06 0-.08.08-.06.15-.12.23-.17.01-.01.03-.01.05 0 2.34 1.07 4.87 1.07 7.18 0 .02-.01.04-.01.05 0 .08.05.15.11.23.17.03.02.03.06 0 .08-.36.2-.73.38-1.12.53-.03.01-.04.04-.03.06.21.42.45.82.73 1.2.02.02.05.02.08.02 1.17-.35 2.35-.9 3.56-1.8.02-.01.03-.03.03-.05.3-3.1-.5-5.77-2.1-8.15-.01-.01-.02-.03-.04-.03ZM10.05 14.08c-.7 0-1.28-.65-1.28-1.45s.57-1.45 1.28-1.45 1.3.65 1.28 1.45c0 .8-.57 1.45-1.28 1.45Zm3.9 0c-.7 0-1.28-.65-1.28-1.45s.57-1.45 1.28-1.45 1.3.65 1.28 1.45c0 .8-.56 1.45-1.28 1.45Z" fill="#fff"/>
</svg>
