<?xml version="1.0" encoding="UTF-8"?>
<svg id="_图层_1" data-name="图层_1" xmlns="http://www.w3.org/2000/svg" version="1.1" viewBox="0 0 20.2 19.4">
  <!-- Generator: Adobe Illustrator 29.1.0, SVG Export Plug-In . SVG Version: 2.1.0 Build 142)  -->
  <defs>
    <style>
      .st0 {
        fill: #007ef6;
      }
    </style>
  </defs>
  <path class="st0" d="M15.9,3.7c-2.2,1.4-8.9,5.7-13.9,11.6C.9,13.8.2,12,.2,10,.2,5,4.3.9,9.3.9s4.9,1.1,6.5,2.8Z"/>
  <path class="st0" d="M18.4,10c0,5-4.1,9.1-9.1,9.1s-.6,0-.9,0c-1.4-.1-2.7-.6-3.9-1.3-.9-3.4,8.8-10.5,12.2-12.9.1.2.2.3.3.5.8,1.4,1.3,3,1.3,4.7Z"/>
  <circle class="st0" cx="18.3" cy="2" r="1.7"/>
</svg>