<svg preserveAspectRatio="none" width="100%" height="100%" overflow="visible" style="display: block;" viewBox="0 0 30.5365 30.5388" fill="none" xmlns="http://www.w3.org/2000/svg">
<g id="Group 469283">
<path id="Vector" d="M10.1811 15.2694C10.1811 12.4588 12.4588 10.1788 15.2706 10.1788C18.0823 10.1788 20.3611 12.4577 20.3611 15.2694C20.3611 18.0812 18.0823 20.36 15.2706 20.36C12.4588 20.36 10.1811 18.0812 10.1811 15.2694ZM7.42911 15.2694C7.42911 19.5996 10.9392 23.1097 15.2694 23.1097C19.5996 23.1097 23.1097 19.5996 23.1097 15.2694C23.1097 10.9392 19.5996 7.42911 15.2694 7.42911C10.9392 7.42911 7.42911 10.9392 7.42911 15.2694ZM21.589 7.11784C21.589 8.12975 22.4091 8.951 23.4221 8.951C24.4352 8.951 25.2553 8.12975 25.2553 7.11784C25.2553 6.10593 24.4352 5.28583 23.4221 5.28583C22.4091 5.28583 21.589 6.10593 21.589 7.11784ZM9.10032 27.6984C7.61174 27.6306 6.80198 27.3825 6.26444 27.1734C5.55116 26.8955 5.04348 26.5658 4.50823 26.0317C3.97414 25.4976 3.64219 24.99 3.36653 24.2767C3.15634 23.7391 2.90939 22.9294 2.84162 21.4408C2.76811 19.8316 2.75318 19.3481 2.75318 15.2706C2.75318 11.1931 2.76926 10.7106 2.84162 9.10031C2.90939 7.61174 3.15864 6.80427 3.36653 6.26443C3.64449 5.55116 3.97414 5.04348 4.50823 4.50823C5.04233 3.97414 5.55001 3.64219 6.26444 3.36653C6.80198 3.15634 7.61174 2.90939 9.10032 2.84162C10.7095 2.76811 11.1931 2.75318 15.2694 2.75318C19.3458 2.75318 19.8293 2.76926 21.4397 2.84162C22.9282 2.90939 23.7357 3.15863 24.2756 3.36653C24.9888 3.64334 25.4965 3.97414 26.0318 4.50823C26.5658 5.04233 26.8966 5.55116 27.1735 6.26443C27.3836 6.80198 27.6306 7.61174 27.6984 9.10031C27.7719 10.7106 27.7868 11.1931 27.7868 15.2706C27.7868 19.3481 27.7719 19.8305 27.6984 21.4408C27.6306 22.9294 27.3814 23.7391 27.1735 24.2767C26.8955 24.99 26.5658 25.4976 26.0318 26.0317C25.4977 26.5658 24.9888 26.8966 24.2756 27.1734C23.738 27.3836 22.9282 27.6306 21.4397 27.6984C19.8305 27.7719 19.3469 27.7868 15.2694 27.7868C11.1919 27.7868 10.7095 27.7719 9.10032 27.6984ZM8.97397 0.0930361C7.34871 0.166546 6.23802 0.42498 5.26746 0.801719C4.26358 1.19109 3.41248 1.71485 2.56251 2.56251C1.7137 3.41133 1.19109 4.26243 0.801719 5.26745C0.423831 6.23916 0.166546 7.34871 0.0930362 8.97397C0.0172289 10.6015 0 11.123 0 15.2694C0 19.4158 0.0172289 19.9362 0.0930362 21.5649C0.166546 23.1901 0.42498 24.3008 0.801719 25.2714C1.19109 26.2752 1.7137 27.1275 2.56251 27.9763C3.41133 28.8251 4.26244 29.3466 5.26746 29.7371C6.23917 30.115 7.34871 30.3723 8.97397 30.4458C10.6038 30.5193 11.123 30.5388 15.2694 30.5388C19.4158 30.5388 19.9362 30.5216 21.5649 30.4458C23.1901 30.3723 24.3008 30.1138 25.2714 29.7371C26.2753 29.3466 27.1264 28.824 27.9763 27.9763C28.8251 27.1275 29.3466 26.2752 29.7371 25.2714C30.115 24.3008 30.3734 23.1901 30.4458 21.5649C30.5193 19.935 30.5365 19.4158 30.5365 15.2694C30.5365 11.123 30.5193 10.6027 30.4458 8.97397C30.3723 7.34871 30.1139 6.23802 29.7371 5.26745C29.3466 4.26358 28.824 3.41247 27.9763 2.56251C27.1275 1.7137 26.2753 1.19109 25.2725 0.801719C24.3008 0.423831 23.1901 0.165398 21.566 0.0930361C19.9385 0.0195261 19.417 0 15.2706 0C11.1241 0 10.6038 0.0172289 8.97397 0.0930361Z" fill="black"/>
</g>
</svg>
